<svg xmlns="http://www.w3.org/2000/svg" version="1.1" xmlns:xlink="http://www.w3.org/1999/xlink" xmlns:svgjs="http://svgjs.com/svgjs" width="64" height="64"><svg width="64" height="64" viewBox="0 0 64 64" fill="none" xmlns="http://www.w3.org/2000/svg">
<rect width="64" height="64" rx="8" fill="#151515"></rect>
<path d="M16.032 41.144C14.368 41.144 12.864 40.776 11.52 40.04C10.192 39.304 9.144 38.288 8.376 36.992C7.624 35.68 7.248 34.216 7.248 32.6C7.248 30.984 7.624 29.528 8.376 28.232C9.144 26.92 10.2 25.896 11.544 25.16C12.888 24.424 14.392 24.056 16.056 24.056C17.304 24.056 18.456 24.264 19.512 24.68C20.568 25.096 21.464 25.704 22.2 26.504L21.072 27.632C19.76 26.304 18.104 25.64 16.104 25.64C14.776 25.64 13.568 25.944 12.48 26.552C11.392 27.16 10.536 27.992 9.912 29.048C9.304 30.104 9 31.288 9 32.6C9 33.912 9.304 35.096 9.912 36.152C10.536 37.208 11.392 38.04 12.48 38.648C13.568 39.256 14.776 39.56 16.104 39.56C18.12 39.56 19.776 38.888 21.072 37.544L22.2 38.672C21.464 39.472 20.56 40.088 19.488 40.52C18.432 40.936 17.28 41.144 16.032 41.144ZM25.986 24.2H32.826C34.602 24.2 36.17 24.56 37.53 25.28C38.89 25.984 39.946 26.976 40.698 28.256C41.45 29.52 41.826 30.968 41.826 32.6C41.826 34.232 41.45 35.688 40.698 36.968C39.946 38.232 38.89 39.224 37.53 39.944C36.17 40.648 34.602 41 32.826 41H25.986V24.2ZM32.73 39.464C34.202 39.464 35.49 39.176 36.594 38.6C37.698 38.008 38.554 37.2 39.162 36.176C39.77 35.136 40.074 33.944 40.074 32.6C40.074 31.256 39.77 30.072 39.162 29.048C38.554 28.008 37.698 27.2 36.594 26.624C35.49 26.032 34.202 25.736 32.73 25.736H27.762V39.464H32.73ZM50.4461 41.144C49.1981 41.144 47.9981 40.944 46.8461 40.544C45.7101 40.144 44.8301 39.616 44.2061 38.96L44.9021 37.592C45.5101 38.2 46.3181 38.696 47.3261 39.08C48.3341 39.448 49.3741 39.632 50.4461 39.632C51.9501 39.632 53.0781 39.36 53.8301 38.816C54.5821 38.256 54.9581 37.536 54.9581 36.656C54.9581 35.984 54.7501 35.448 54.3341 35.048C53.9341 34.648 53.4381 34.344 52.8461 34.136C52.2541 33.912 51.4301 33.672 50.3741 33.416C49.1101 33.096 48.1021 32.792 47.3501 32.504C46.5981 32.2 45.9501 31.744 45.4061 31.136C44.8781 30.528 44.6141 29.704 44.6141 28.664C44.6141 27.816 44.8381 27.048 45.2861 26.36C45.7341 25.656 46.4221 25.096 47.3501 24.68C48.2781 24.264 49.4301 24.056 50.8061 24.056C51.7661 24.056 52.7021 24.192 53.6141 24.464C54.5421 24.72 55.3421 25.08 56.0141 25.544L55.4141 26.96C54.7101 26.496 53.9581 26.152 53.1581 25.928C52.3581 25.688 51.5741 25.568 50.8061 25.568C49.3341 25.568 48.2221 25.856 47.4701 26.432C46.7341 26.992 46.3661 27.72 46.3661 28.616C46.3661 29.288 46.5661 29.832 46.9661 30.248C47.3821 30.648 47.8941 30.96 48.5021 31.184C49.1261 31.392 49.9581 31.624 50.9981 31.88C52.2301 32.184 53.2221 32.488 53.9741 32.792C54.7421 33.08 55.3901 33.528 55.9181 34.136C56.4461 34.728 56.7101 35.536 56.7101 36.56C56.7101 37.408 56.4781 38.184 56.0141 38.888C55.5661 39.576 54.8701 40.128 53.9261 40.544C52.9821 40.944 51.8221 41.144 50.4461 41.144Z" fill="white"></path>
</svg><style>@media (prefers-color-scheme: light) { :root { filter: none; } }
</style></svg>