<svg width="50" height="50" viewBox="0 0 50 50" fill="none" xmlns="http://www.w3.org/2000/svg">
<path d="M25.0003 4.16663C13.5128 4.16663 4.16699 13.5125 4.16699 25C4.16699 36.4875 13.5128 45.8333 25.0003 45.8333C36.4878 45.8333 45.8337 36.4875 45.8337 25C45.8337 13.5125 36.4878 4.16663 25.0003 4.16663ZM33.5316 33.8416C32.967 34.4062 32.3441 34.9208 31.6878 35.3625C31.017 35.8166 30.3024 36.202 29.5607 36.5166C28.7941 36.8375 28.0066 37.0833 27.2107 37.2458C26.3837 37.4145 25.5378 37.5 24.6962 37.5C23.8545 37.5 23.0066 37.4145 22.1816 37.2458C21.3837 37.0854 20.5962 36.8395 19.8337 36.5187C19.0899 36.2041 18.3753 35.8166 17.7066 35.3645C17.0482 34.9187 16.4253 34.4062 15.8566 33.8375C15.292 33.275 14.7753 32.652 14.3295 31.9854L17.7837 29.6583C18.0816 30.0979 18.4232 30.5125 18.8003 30.8875C19.1857 31.275 19.6003 31.6166 20.0378 31.9125C20.4816 32.2125 20.9587 32.4708 21.4524 32.6791C21.9587 32.8916 22.4837 33.0562 23.0128 33.1625C24.1149 33.3854 25.2732 33.3854 26.3795 33.1625C26.9066 33.0541 27.4316 32.8895 27.942 32.677C28.4295 32.4687 28.9087 32.2104 29.3566 31.9104C29.7899 31.6145 30.2045 31.2729 30.5878 30.8916C30.9691 30.5125 31.3107 30.0979 31.6066 29.6583L35.0607 31.9854C34.6128 32.652 34.0982 33.277 33.5316 33.8416ZM39.5837 20.8333C39.5837 23.1333 37.717 25 35.417 25H31.2503C28.9503 25 27.0837 23.1333 27.0837 20.8333H22.917C22.917 23.1333 21.0503 25 18.7503 25H14.5837C12.2837 25 10.417 23.1333 10.417 20.8333V16.6666H14.5837H18.7503H31.2503H35.417H39.5837V20.8333Z" fill="white"/>
</svg>
