<svg width="18" height="17" viewBox="0 0 18 17" fill="none" xmlns="http://www.w3.org/2000/svg">
<path d="M8.52447 0.463281C8.67415 0.00262594 9.32585 0.00262594 9.47553 0.463281L11.1329 5.56409C11.1998 5.77011 11.3918 5.90959 11.6084 5.90959H16.9717C17.4561 5.90959 17.6575 6.52939 17.2656 6.81409L12.9266 9.96657C12.7514 10.0939 12.678 10.3196 12.745 10.5256L14.4023 15.6264C14.552 16.0871 14.0248 16.4701 13.6329 16.1854L9.29389 13.0329C9.11865 12.9056 8.88135 12.9056 8.70611 13.0329L4.3671 16.1854C3.97524 16.4701 3.448 16.0871 3.59768 15.6264L5.25503 10.5256C5.32197 10.3196 5.24864 10.0939 5.07339 9.96657L0.734384 6.81409C0.342527 6.52939 0.543915 5.90959 1.02828 5.90959H6.39159C6.6082 5.90959 6.80018 5.77011 6.86712 5.56409L8.52447 0.463281Z" fill="#727272"/>
</svg>
